{
  "accessors": [
    {
      "bufferView": 2,
      "componentType": 5126,
      "count": 4730,
      "max": [
        3.8844239711761475,
        3.6147899627685547,
        1.3377330303192139
      ],
      "min": [
        -3.884424924850464,
        -3.783597946166992,
        -1.032688021659851
      ],
      "type": "VEC3"
    },
    {
      "bufferView": 2,
      "byteOffset": 56760,
      "componentType": 5126,
      "count": 4730,
      "max": [
        1.0,
        1.0,
        1.0
      ],
      "min": [
        -1.0,
        -1.0,
        -1.0
      ],
      "type": "VEC3"
    },
    {
      "bufferView": 1,
      "componentType": 5126,
      "count": 4730,
      "max": [
        0.9953740239143372,
        1.000601053237915
      ],
      "min": [
        -0.0012669999850913882,
        -0.0006040000007487833
      ],
      "type": "VEC2"
    },
    {
      "bufferView": 0,
      "componentType": 5125,
      "count": 15786,
      "type": "SCALAR"
    },
    {
      "bufferView": 2,
      "byteOffset": 113520,
      "componentType": 5126,
      "count": 31912,
      "max": [
        2.1564419269561768,
        2.1564419269561768,
        2.1790390014648438
      ],
      "min": [
        -2.1564419269561768,
        -2.1564431190490723,
        -2.1790409088134766
      ],
      "type": "VEC3"
    },
    {
      "bufferView": 2,
      "byteOffset": 496464,
      "componentType": 5126,
      "count": 31912,
      "max": [
        1.0,
        1.0,
        1.0
      ],
      "min": [
        -1.0,
        -1.0,
        -1.0
      ],
      "type": "VEC3"
    },
    {
      "bufferView": 1,
      "byteOffset": 37840,
      "componentType": 5126,
      "count": 31912,
      "max": [
        0.986657977104187,
        0.881102979183197
      ],
      "min": [
        0.025283999741077423,
        0.16849100589752197
      ],
      "type": "VEC2"
    },
    {
      "bufferView": 0,
      "byteOffset": 63144,
      "componentType": 5125,
      "count": 190464,
      "type": "SCALAR"
    }
  ],
  "asset": {
    "extras": {
      "author": "Omer Bhatti (https://sketchfab.com/OmerBhatti)",
      "license": "CC-BY-4.0 (http://creativecommons.org/licenses/by/4.0/)",
      "source": "https://sketchfab.com/3d-models/saturn-hd-textures-7f5432d978404732bf333f914243a540",
      "title": "Saturn hd  textures"
    },
    "generator": "Sketchfab-12.67.0",
    "version": "2.0"
  },
  "bufferViews": [
    {
      "buffer": 0,
      "byteLength": 825000,
      "name": "floatBufferViews",
      "target": 34963
    },
    {
      "buffer": 0,
      "byteLength": 293136,
      "byteOffset": 825000,
      "byteStride": 8,
      "name": "floatBufferViews",
      "target": 34962
    },
    {
      "buffer": 0,
      "byteLength": 879408,
      "byteOffset": 1118136,
      "byteStride": 12,
      "name": "floatBufferViews",
      "target": 34962
    }
  ],
  "buffers": [
    {
      "byteLength": 1997544,
      "uri": "scene.bin"
    }
  ],
  "images": [
    {
      "uri": "textures/Material.001_baseColor.png"
    },
    {
      "uri": "textures/None_baseColor.jpeg"
    }
  ],
  "materials": [
    {
      "alphaMode": "BLEND",
      "doubleSided": true,
      "name": "Material.001",
      "pbrMetallicRoughness": {
        "baseColorFactor": [
          1.0,
          1.0,
          1.0,
          0.7775998664624764
        ],
        "baseColorTexture": {
          "index": 0
        },
        "metallicFactor": 0.0,
        "roughnessFactor": 0.852703163840554
      }
    },
    {
      "doubleSided": true,
      "name": "None",
      "pbrMetallicRoughness": {
        "baseColorTexture": {
          "index": 1
        },
        "metallicFactor": 0.1897210786,
        "roughnessFactor": 0.7496728608000001
      }
    }
  ],
  "meshes": [
    {
      "name": "Object_0",
      "primitives": [
        {
          "attributes": {
            "NORMAL": 1,
            "POSITION": 0,
            "TEXCOORD_0": 2
          },
          "indices": 3,
          "material": 0,
          "mode": 4
        }
      ]
    },
    {
      "name": "Object_1",
      "primitives": [
        {
          "attributes": {
            "NORMAL": 5,
            "POSITION": 4,
            "TEXCOORD_0": 6
          },
          "indices": 7,
          "material": 1,
          "mode": 4
        }
      ]
    }
  ],
  "nodes": [
    {
      "children": [
        1
      ],
      "matrix": [
        4.440892098500626e-16,
        -5.828670879282072e-16,
        1.0,
        0.0,
        0.9588623046875,
        0.28387153148651123,
        -2.70034765329161e-16,
        0.0,
        -0.28387153148651123,
        0.9588623046875,
        7.125105627031614e-16,
        0.0,
        0.12423443049192429,
        0.11749269813299178,
        0.08441829681396487,
        1.0
      ],
      "name": "Sketchfab_model"
    },
    {
      "children": [
        2,
        3
      ],
      "name": "saturn1.obj.cleaner.materialmerger.gles"
    },
    {
      "mesh": 0,
      "name": "Object_2"
    },
    {
      "mesh": 1,
      "name": "Object_3"
    }
  ],
  "samplers": [
    {
      "magFilter": 9729,
      "minFilter": 9987,
      "wrapS": 10497,
      "wrapT": 10497
    }
  ],
  "scene": 0,
  "scenes": [
    {
      "name": "Sketchfab_Scene",
      "nodes": [
        0
      ]
    }
  ],
  "textures": [
    {
      "sampler": 0,
      "source": 0
    },
    {
      "sampler": 0,
      "source": 1
    }
  ]
}
